<svg id="visual" viewBox="0 0 1920 1080" width="1920" height="1080" xmlns="http://www.w3.org/2000/svg" xmlns:xlink="http://www.w3.org/1999/xlink" version="1.1"><rect width="1920" height="1080" fill="#6a7778"></rect><g><g transform="translate(1498 315)"><path d="M193.6 -60.9C217.9 11.8 181.8 106.2 115 153.7C48.1 201.2 -49.5 201.9 -114.9 155.1C-180.3 108.3 -213.5 14.1 -189 -59C-164.4 -132.2 -82.2 -184.2 1.2 -184.6C84.7 -185 169.3 -133.7 193.6 -60.9Z" stroke="#afbcbe" fill="none" stroke-width="20"></path></g><g transform="translate(1470 892)"><path d="M125.9 -42.5C143.3 12.6 123.8 78.1 81.5 107.8C39.1 137.5 -26 131.5 -69.3 99.1C-112.6 66.8 -134 8.2 -118.8 -44C-103.6 -96.1 -51.8 -141.6 1.2 -142C54.2 -142.4 108.5 -97.7 125.9 -42.5Z" stroke="#afbcbe" fill="none" stroke-width="20"></path></g><g transform="translate(120 1019)"><path d="M124.1 -38.7C140 8.5 117.6 69.8 75.9 98.7C34.1 127.7 -26.9 124.4 -71.7 93.2C-116.5 62 -145 2.8 -130.3 -42.7C-115.6 -88.3 -57.8 -120.2 -1.8 -119.6C54.1 -119 108.3 -85.9 124.1 -38.7Z" stroke="#afbcbe" fill="none" stroke-width="20"></path></g><g transform="translate(910 31)"><path d="M141.8 -48C161 12.9 138 85.6 89.8 119.7C41.7 153.7 -31.7 149.2 -85.2 111.6C-138.7 74.1 -172.3 3.6 -154.8 -55.1C-137.3 -113.7 -68.6 -160.6 -3.7 -159.4C61.3 -158.2 122.6 -109 141.8 -48Z" stroke="#afbcbe" fill="none" stroke-width="20"></path></g><g transform="translate(148 365)"><path d="M132.3 -42.3C154 23.6 142 101.2 95.7 135.8C49.5 170.3 -30.9 161.7 -87.4 120.6C-143.9 79.5 -176.6 5.7 -158 -55.9C-139.5 -117.5 -69.7 -167 -7.2 -164.7C55.3 -162.4 110.7 -108.1 132.3 -42.3Z" stroke="#afbcbe" fill="none" stroke-width="20"></path></g><g transform="translate(890 806)"><path d="M141.8 -41.2C159.6 8.6 133.1 77.7 84.6 111.8C36.2 146 -34.3 145.1 -77.3 112.5C-120.2 79.8 -135.6 15.4 -118.1 -34C-100.6 -83.4 -50.3 -117.8 5.9 -119.7C62 -121.6 124 -91 141.8 -41.2Z" stroke="#afbcbe" fill="none" stroke-width="20"></path></g></g></svg>