<svg id="visual" viewBox="0 0 600 900" width="600" height="900" xmlns="http://www.w3.org/2000/svg" xmlns:xlink="http://www.w3.org/1999/xlink" version="1.1"><rect width="600" height="900" fill="#6a7778"></rect><g><g transform="translate(332 257)"><path d="M91.2 -28.6C104.6 11.6 92.5 61.1 59 86.7C25.5 112.4 -29.4 114.1 -64.3 88.7C-99.3 63.3 -114.3 10.6 -100.3 -30.5C-86.2 -71.5 -43.1 -101 -2.1 -100.3C38.9 -99.6 77.8 -68.8 91.2 -28.6Z" stroke="#afbcbe" fill="none" stroke-width="20"></path></g><g transform="translate(485 661)"><path d="M75.7 -24.4C86.2 7.7 74.6 47.2 49.1 65.1C23.6 83 -15.8 79.5 -42.9 59.6C-70 39.8 -84.8 3.7 -75.7 -26.6C-66.5 -56.9 -33.2 -81.5 -0.3 -81.4C32.6 -81.3 65.3 -56.5 75.7 -24.4Z" stroke="#afbcbe" fill="none" stroke-width="20"></path></g><g transform="translate(40 219)"><path d="M48.9 -14.5C56.4 7 50.5 34.2 32.9 47.6C15.2 61 -14.2 60.5 -35.1 45.9C-56 31.3 -68.3 2.6 -61 -18.7C-53.7 -40 -26.9 -53.9 -3.1 -52.9C20.8 -51.9 41.5 -36 48.9 -14.5Z" stroke="#afbcbe" fill="none" stroke-width="20"></path></g><g transform="translate(85 597)"><path d="M96 -31.2C106.3 0.6 84.1 42.9 52.2 64.3C20.3 85.6 -21.3 86.1 -50.5 65.8C-79.7 45.4 -96.5 4.3 -86.1 -27.7C-75.6 -59.7 -37.8 -82.7 2.5 -83.5C42.8 -84.3 85.6 -63 96 -31.2Z" stroke="#afbcbe" fill="none" stroke-width="20"></path></g><g transform="translate(247 890)"><path d="M89.6 -31.4C100.3 3.9 82.3 46.2 51.6 67.8C20.8 89.4 -22.7 90.2 -52.7 69.2C-82.7 48.2 -99.2 5.3 -88.2 -30.4C-77.2 -66.1 -38.6 -94.5 0.4 -94.7C39.5 -94.8 78.9 -66.6 89.6 -31.4Z" stroke="#afbcbe" fill="none" stroke-width="20"></path></g><g transform="translate(585 84)"><path d="M67.9 -20.6C78.2 9.6 70 47.3 46 65.2C22.1 83 -17.7 81 -42.7 62.1C-67.7 43.1 -78 7.2 -68.4 -22C-58.9 -51.2 -29.4 -73.7 -0.3 -73.6C28.8 -73.5 57.6 -50.8 67.9 -20.6Z" stroke="#afbcbe" fill="none" stroke-width="20"></path></g></g></svg>