<svg id="visual" viewBox="0 0 600 900" width="600" height="900" xmlns="http://www.w3.org/2000/svg" xmlns:xlink="http://www.w3.org/1999/xlink" version="1.1"><rect width="600" height="900" fill="#6a7778"></rect><g><g transform="translate(598 83)"><path d="M102.1 -32.4C114.9 6.2 95.9 56 59.3 82.9C22.7 109.8 -31.4 113.8 -62.9 90.1C-94.3 66.4 -103 15.1 -88.7 -25.5C-74.4 -66.1 -37.2 -96 3.7 -97.2C44.7 -98.4 89.3 -71 102.1 -32.4Z" stroke="#afbcbe" fill="none" stroke-width="20"></path></g><g transform="translate(180 850)"><path d="M59.6 -17.8C69.2 10 63.2 44.4 41.7 60.9C20.1 77.4 -17 75.9 -39.2 58.7C-61.4 41.5 -68.6 8.4 -59.5 -18.7C-50.5 -45.8 -25.3 -67 -0.1 -66.9C25 -66.9 50.1 -45.7 59.6 -17.8Z" stroke="#afbcbe" fill="none" stroke-width="20"></path></g><g transform="translate(204 292)"><path d="M84.2 -26.5C94.4 4 77.8 44.1 48.9 64.5C20 84.9 -21.3 85.5 -47.3 66.3C-73.3 47.1 -84.1 8.1 -73.7 -22.7C-63.3 -53.5 -31.7 -76.1 2.7 -77C37 -77.9 74 -57 84.2 -26.5Z" stroke="#afbcbe" fill="none" stroke-width="20"></path></g><g transform="translate(563 645)"><path d="M70.7 -25.5C79.3 3.6 65.5 37.4 41.9 53.5C18.3 69.7 -15.1 68.3 -38.1 51.7C-61.2 35.2 -73.8 3.5 -65.7 -24.8C-57.6 -53.2 -28.8 -78.3 1.1 -78.7C31 -79 62.1 -54.6 70.7 -25.5Z" stroke="#afbcbe" fill="none" stroke-width="20"></path></g><g transform="translate(37 28)"><path d="M49.4 -16.3C55.1 1.7 44.8 24.6 26.7 38.1C8.6 51.6 -17.3 55.6 -34.5 43.9C-51.7 32.3 -60.1 5 -52.9 -15C-45.7 -35 -22.9 -47.7 -0.5 -47.5C21.8 -47.3 43.6 -34.3 49.4 -16.3Z" stroke="#afbcbe" fill="none" stroke-width="20"></path></g><g transform="translate(44 543)"><path d="M71.2 -24.2C80.6 5.8 68.5 41.8 43.5 59.9C18.5 78.1 -19.5 78.6 -46.4 59.9C-73.4 41.3 -89.4 3.5 -79.8 -26.7C-70.2 -57 -35.1 -79.8 -2.1 -79.1C30.9 -78.4 61.8 -54.3 71.2 -24.2Z" stroke="#afbcbe" fill="none" stroke-width="20"></path></g></g></svg>