<svg id="visual" viewBox="0 0 1920 1080" width="1920" height="1080" xmlns="http://www.w3.org/2000/svg" xmlns:xlink="http://www.w3.org/1999/xlink" version="1.1"><rect width="1920" height="1080" fill="#6a7778"></rect><g><g transform="translate(680 257)"><path d="M205.5 -69.8C231.8 14.1 194.8 115.6 124.4 165.4C54.1 215.1 -49.6 213.1 -118.5 163.1C-187.4 113 -221.4 15 -195.9 -67.9C-170.3 -150.9 -85.2 -218.8 2.2 -219.5C89.6 -220.3 179.2 -153.8 205.5 -69.8Z" stroke="#afbcbe" fill="none" stroke-width="20"></path></g><g transform="translate(1810 856)"><path d="M105 -35.8C117.6 4.7 96.7 54.5 59.5 81.4C22.3 108.3 -31.1 112.3 -66.2 87.7C-101.3 63 -118.1 9.6 -104 -33C-89.9 -75.5 -45 -107.2 0.6 -107.4C46.2 -107.6 92.4 -76.3 105 -35.8Z" stroke="#afbcbe" fill="none" stroke-width="20"></path></g><g transform="translate(975 944)"><path d="M162 -48.8C181 5.8 147.4 81.2 89.8 123C32.1 164.7 -49.6 172.8 -103.1 135.4C-156.7 98.1 -182 15.4 -160.1 -43.2C-138.2 -101.8 -69.1 -136.3 1.2 -136.7C71.5 -137.1 143.1 -103.4 162 -48.8Z" stroke="#afbcbe" fill="none" stroke-width="20"></path></g><g transform="translate(297 882)"><path d="M112.8 -42.4C127.1 7.4 106.5 62.8 64.5 94.8C22.4 126.8 -41.1 135.4 -80.9 107.4C-120.7 79.4 -136.8 14.9 -119.3 -39.3C-101.9 -93.4 -51 -137.1 -0.9 -136.8C49.2 -136.6 98.5 -92.3 112.8 -42.4Z" stroke="#afbcbe" fill="none" stroke-width="20"></path></g><g transform="translate(1297 190)"><path d="M122.7 -37.7C137 4.4 111.6 61.5 70 90.4C28.4 119.2 -29.5 119.7 -71.7 90.9C-113.9 62.1 -140.4 3.9 -125.8 -38.4C-111.3 -80.6 -55.6 -107 -0.7 -106.8C54.2 -106.6 108.3 -79.7 122.7 -37.7Z" stroke="#afbcbe" fill="none" stroke-width="20"></path></g><g transform="translate(1879 184)"><path d="M126 -44.3C142.8 10.8 121.9 74.9 75.8 109.7C29.6 144.5 -41.7 150 -85 118.2C-128.3 86.5 -143.6 17.4 -124.8 -40.4C-105.9 -98.3 -53 -145 0.8 -145.2C54.6 -145.5 109.2 -99.3 126 -44.3Z" stroke="#afbcbe" fill="none" stroke-width="20"></path></g><g transform="translate(73 106)"><path d="M132.2 -46.1C147.7 4.4 120 65.8 75.7 96.1C31.4 126.3 -29.5 125.5 -72.6 95.3C-115.7 65.1 -140.9 5.5 -125.8 -44.6C-110.8 -94.7 -55.4 -135.4 1.5 -135.9C58.4 -136.3 116.8 -96.6 132.2 -46.1Z" stroke="#afbcbe" fill="none" stroke-width="20"></path></g></g></svg>