<svg xmlns="http://www.w3.org/2000/svg" version="1.1" xmlns:xlink="http://www.w3.org/1999/xlink" xmlns:svgjs="http://svgjs.com/svgjs" width="1920" height="1080" preserveAspectRatio="none" viewBox="0 0 1920 1080"><g mask="url(&quot;#SvgjsMask1072&quot;)" fill="none"><rect width="1920" height="1080" x="0" y="0" fill="rgba(24, 106, 59, 1)"></rect><path d="M0,582.119C135.044,589.597,274.543,675.664,396.063,616.286C518.546,556.437,587.884,414.659,615.795,281.224C641.339,159.107,574.543,42.416,541.252,-77.82C512.485,-181.716,499.405,-290.35,433.841,-375.926C365.847,-464.674,272.414,-531.239,166.482,-566.986C57.858,-603.641,-56.85,-596.696,-170.236,-579.771C-298.757,-560.587,-443.1,-555.604,-533.716,-462.467C-625.294,-368.341,-618.41,-221.39,-644.198,-92.622C-671.586,44.137,-742.633,185.922,-689.38,314.829C-635.84,444.432,-499.585,523.235,-368.841,573.928C-251.81,619.304,-125.328,575.179,0,582.119" fill="#13552f"></path><path d="M1920 1603.4569999999999C2021.593 1614.865 2121.912 1582.4560000000001 2212.68 1535.4180000000001 2310.025 1484.972 2393.975 1414.969 2456.934 1325.209 2529.615 1221.588 2635.6040000000003 1103.802 2600.77 982.12 2565.08 857.451 2402.281 827.261 2293.9700000000003 755.953 2216.018 704.633 2135.826 667.937 2054.366 622.39 1944.87 561.167 1858.154 441.664 1732.705 442.131 1601.989 442.61699999999996 1470.363 518.235 1394.722 624.844 1320.742 729.1120000000001 1345.297 868.807 1339.358 996.516 1333.9969999999998 1111.791 1296.455 1239.782 1361.699 1334.968 1426.187 1429.051 1563.926 1424.6779999999999 1666.72 1474.112 1753.919 1516.046 1823.846 1592.6599999999999 1920 1603.4569999999999" fill="#1d7f47"></path></g><defs><mask id="SvgjsMask1072"><rect width="1920" height="1080" fill="#ffffff"></rect></mask></defs></svg>