<svg xmlns="http://www.w3.org/2000/svg" version="1.1" xmlns:xlink="http://www.w3.org/1999/xlink" xmlns:svgjs="http://svgjs.com/svgjs" width="600" height="1080" preserveAspectRatio="none" viewBox="0 0 600 1080"><g mask="url(&quot;#SvgjsMask1098&quot;)" fill="none"><rect width="600" height="1080" x="0" y="0" fill="rgba(24, 106, 59, 1)"></rect><path d="M0,338.316C66.221,335.998,128.066,319.152,190.045,295.716C267.053,266.596,373.926,261.21,405.256,185.074C436.868,108.251,354.741,32.068,331.334,-47.639C312.021,-113.407,318.885,-186.125,279.729,-242.386C238.364,-301.821,175.079,-340.683,108.149,-368.322C35.492,-398.326,-49.02,-441.912,-119.59,-407.285C-191.312,-372.093,-188.452,-268.069,-232.287,-201.278C-268.356,-146.319,-330.14,-112.266,-353.529,-50.83C-380.467,19.927,-403.814,101.204,-373.927,170.767C-343.935,240.575,-268.128,278.259,-198.792,309.327C-136.418,337.275,-68.307,340.707,0,338.316" fill="#13552f"></path><path d="M600 1451.571C665.963 1433.6680000000001 706.867 1371.939 768.093 1341.558 840.332 1305.712 948.3299999999999 1327.16 989.938 1258.079 1030.621 1190.534 981.0360000000001 1103.68 956.5029999999999 1028.743 935.4839999999999 964.5409999999999 895.3399999999999 912.6659999999999 858.3489999999999 856.139 815.017 789.923 790.271 706.4780000000001 720.807 668.571 646.312 627.918 554.768 624.976 472.431 645.54 388.294 666.553 295.836 705.797 258.451 784.046 221.42899999999997 861.535 286.851 949.033 286.402 1034.911 286.038 1104.456 243.85700000000003 1168.6 256.08 1237.063 270.383 1317.176 291.829 1409.013 360.879 1452.08 429.908 1495.134 521.485 1472.8809999999999 600 1451.571" fill="#1d7f47"></path></g><defs><mask id="SvgjsMask1098"><rect width="600" height="1080" fill="#ffffff"></rect></mask></defs></svg>