<svg id="visual" viewBox="0 0 960 540" width="960" height="540" xmlns="http://www.w3.org/2000/svg" xmlns:xlink="http://www.w3.org/1999/xlink" version="1.1"><rect width="960" height="540" fill="#1c2b49"></rect><g><g transform="translate(131 311)"><path d="M0 -126.9L109.9 -63.4L109.9 63.4L0 126.9L-109.9 63.4L-109.9 -63.4Z" fill="#297EA6"></path></g><g transform="translate(442 188)"><path d="M0 -113L97.9 -56.5L97.9 56.5L0 113L-97.9 56.5L-97.9 -56.5Z" fill="#297EA6"></path></g><g transform="translate(951 440)"><path d="M0 -90L77.9 -45L77.9 45L0 90L-77.9 45L-77.9 -45Z" fill="#297EA6"></path></g><g transform="translate(953 103)"><path d="M0 -105L90.9 -52.5L90.9 52.5L0 105L-90.9 52.5L-90.9 -52.5Z" fill="#297EA6"></path></g></g></svg>