<svg id="visual" viewBox="0 0 600 960" width="600" height="960" xmlns="http://www.w3.org/2000/svg" xmlns:xlink="http://www.w3.org/1999/xlink" version="1.1"><rect width="600" height="960" fill="#1c2b49"></rect><g><g transform="translate(86 472)"><path d="M0 -133.7L115.8 -66.9L115.8 66.9L0 133.7L-115.8 66.9L-115.8 -66.9Z" fill="#297EA6"></path></g><g transform="translate(453 869)"><path d="M0 -72L62.4 -36L62.4 36L0 72L-62.4 36L-62.4 -36Z" fill="#297EA6"></path></g><g transform="translate(398 550)"><path d="M0 -118L102.2 -59L102.2 59L0 118L-102.2 59L-102.2 -59Z" fill="#297EA6"></path></g><g transform="translate(195 165)"><path d="M0 -73L63.2 -36.5L63.2 36.5L0 73L-63.2 36.5L-63.2 -36.5Z" fill="#297EA6"></path></g></g></svg>