<svg id="visual" viewBox="0 0 1280 720" width="1280" height="720" xmlns="http://www.w3.org/2000/svg" xmlns:xlink="http://www.w3.org/1999/xlink" version="1.1"><rect width="1280" height="720" fill="#1c2b49"></rect><g><g transform="translate(462 512)"><path d="M0 -93.3L80.8 -46.7L80.8 46.7L0 93.3L-80.8 46.7L-80.8 -46.7Z" fill="#297EA6"></path></g><g transform="translate(1240 704)"><path d="M0 -62L53.7 -31L53.7 31L0 62L-53.7 31L-53.7 -31Z" fill="#297EA6"></path></g><g transform="translate(9 344)"><path d="M0 -91L78.8 -45.5L78.8 45.5L0 91L-78.8 45.5L-78.8 -45.5Z" fill="#297EA6"></path></g><g transform="translate(135 146)"><path d="M0 -49L42.4 -24.5L42.4 24.5L0 49L-42.4 24.5L-42.4 -24.5Z" fill="#297EA6"></path></g><g transform="translate(1235 238)"><path d="M0 -82L71 -41L71 41L0 82L-71 41L-71 -41Z" fill="#297EA6"></path></g><g transform="translate(854 680)"><path d="M0 -69L59.8 -34.5L59.8 34.5L0 69L-59.8 34.5L-59.8 -34.5Z" fill="#297EA6"></path></g><g transform="translate(152 626)"><path d="M0 -74L64.1 -37L64.1 37L0 74L-64.1 37L-64.1 -37Z" fill="#297EA6"></path></g><g transform="translate(848 358)"><path d="M0 -82L71 -41L71 41L0 82L-71 41L-71 -41Z" fill="#297EA6"></path></g><g transform="translate(818 108)"><path d="M0 -84L72.7 -42L72.7 42L0 84L-72.7 42L-72.7 -42Z" fill="#297EA6"></path></g><g transform="translate(347 137)"><path d="M0 -49L42.4 -24.5L42.4 24.5L0 49L-42.4 24.5L-42.4 -24.5Z" fill="#297EA6"></path></g><g transform="translate(631 32)"><path d="M0 -90L77.9 -45L77.9 45L0 90L-77.9 45L-77.9 -45Z" fill="#297EA6"></path></g></g></svg>