<svg id="visual" viewBox="0 0 600 1000" width="600" height="1000" xmlns="http://www.w3.org/2000/svg" xmlns:xlink="http://www.w3.org/1999/xlink" version="1.1"><rect width="600" height="1000" fill="#1c2b49"></rect><g><g transform="translate(72 283)"><path d="M0 -136.5L118.2 -68.3L118.2 68.3L0 136.5L-118.2 68.3L-118.2 -68.3Z" fill="#297EA6"></path></g><g transform="translate(487 225)"><path d="M0 -122L105.7 -61L105.7 61L0 122L-105.7 61L-105.7 -61Z" fill="#297EA6"></path></g><g transform="translate(171 614)"><path d="M0 -106L91.8 -53L91.8 53L0 106L-91.8 53L-91.8 -53Z" fill="#297EA6"></path></g><g transform="translate(555 646)"><path d="M0 -130L112.6 -65L112.6 65L0 130L-112.6 65L-112.6 -65Z" fill="#297EA6"></path></g></g></svg>