<svg id="visual" viewBox="0 0 1280 720" width="1280" height="720" xmlns="http://www.w3.org/2000/svg" xmlns:xlink="http://www.w3.org/1999/xlink" version="1.1"><rect width="1280" height="720" fill="#1c2b49"></rect><g><g transform="translate(12 679)"><path d="M0 -157.8L136.6 -78.9L136.6 78.9L0 157.8L-136.6 78.9L-136.6 -78.9Z" fill="#297EA6"></path></g><g transform="translate(1071 111)"><path d="M0 -91L78.8 -45.5L78.8 45.5L0 91L-78.8 45.5L-78.8 -45.5Z" fill="#297EA6"></path></g><g transform="translate(349 260)"><path d="M0 -124L107.4 -62L107.4 62L0 124L-107.4 62L-107.4 -62Z" fill="#297EA6"></path></g><g transform="translate(1138 601)"><path d="M0 -85L73.6 -42.5L73.6 42.5L0 85L-73.6 42.5L-73.6 -42.5Z" fill="#297EA6"></path></g><g transform="translate(590 542)"><path d="M0 -86L74.5 -43L74.5 43L0 86L-74.5 43L-74.5 -43Z" fill="#297EA6"></path></g></g></svg>