<svg id="visual" viewBox="0 0 720 1080" width="720" height="1080" xmlns="http://www.w3.org/2000/svg" xmlns:xlink="http://www.w3.org/1999/xlink" version="1.1"><rect width="720" height="1080" fill="#1c2b49"></rect><g><g transform="translate(676 422)"><path d="M0 -144.9L125.5 -72.5L125.5 72.5L0 144.9L-125.5 72.5L-125.5 -72.5Z" fill="#297EA6"></path></g><g transform="translate(195 501)"><path d="M0 -99L85.7 -49.5L85.7 49.5L0 99L-85.7 49.5L-85.7 -49.5Z" fill="#297EA6"></path></g><g transform="translate(494 778)"><path d="M0 -82L71 -41L71 41L0 82L-71 41L-71 -41Z" fill="#297EA6"></path></g><g transform="translate(80 942)"><path d="M0 -114L98.7 -57L98.7 57L0 114L-98.7 57L-98.7 -57Z" fill="#297EA6"></path></g><g transform="translate(402 185)"><path d="M0 -80L69.3 -40L69.3 40L0 80L-69.3 40L-69.3 -40Z" fill="#297EA6"></path></g></g></svg>