<svg id="visual" viewBox="0 0 1280 720" width="1280" height="720" xmlns="http://www.w3.org/2000/svg" xmlns:xlink="http://www.w3.org/1999/xlink" version="1.1"><rect width="1280" height="720" fill="#1c2b49"></rect><g><g transform="translate(614 703)"><path d="M0 -157.8L136.6 -78.9L136.6 78.9L0 157.8L-136.6 78.9L-136.6 -78.9Z" fill="#297EA6"></path></g><g transform="translate(468 264)"><path d="M0 -142L123 -71L123 71L0 142L-123 71L-123 -71Z" fill="#297EA6"></path></g><g transform="translate(1003 271)"><path d="M0 -98L84.9 -49L84.9 49L0 98L-84.9 49L-84.9 -49Z" fill="#297EA6"></path></g><g transform="translate(13 565)"><path d="M0 -108L93.5 -54L93.5 54L0 108L-93.5 54L-93.5 -54Z" fill="#297EA6"></path></g><g transform="translate(949 682)"><path d="M0 -142L123 -71L123 71L0 142L-123 71L-123 -71Z" fill="#297EA6"></path></g></g></svg>